<?xml version="1.0" encoding="UTF-8"?>
<svg id="ART" xmlns="http://www.w3.org/2000/svg" xmlns:xlink="http://www.w3.org/1999/xlink" version="1.1" viewBox="0 0 500 350">
  <!-- Generator: Adobe Illustrator 29.3.1, SVG Export Plug-In . SVG Version: 2.1.0 Build 151)  -->
  <defs>
    <style>
      .st0 {
        fill: #103c68;
      }

      .st1 {
        fill: #e0cb26;
      }

      .st2 {
        fill: #a39634;
      }

      .st3 {
        fill: #fff;
      }
    </style>
  </defs>
  <path class="st1" d="M172.1,166.4v-21.2h-85.7c12.4,20.7,38.1,21.1,37.9,21.1-2.8-.1,17.3,0,47.8,0Z"/>
  <path class="st1" d="M172.1,110.6H48c7,16.5,26.2,26.3,35,26.3h89.1v-26.3Z"/>
  <path class="st1" d="M172.1,62.4H7.2c-1.3,0-2.3,1.2-2.2,2.5,0,0,0,.3,0,.4,4,19.2,28.4,37.1,39.9,37.1h127.2v-40h0Z"/>
  <path class="st1" d="M327.9,166.4v-21.2h85.7c-12.4,20.7-38.1,21.1-37.9,21.1,2.8-.1-17.3,0-47.8,0Z"/>
  <path class="st1" d="M327.9,110.6h124.1c-7,16.5-26.2,26.3-35,26.3h-89.1v-26.3Z"/>
  <path class="st1" d="M327.9,62.4h164.8c1.3,0,2.3,1.2,2.2,2.5,0,0,0,.3-.1.4-4,19.2-28.4,37.1-39.9,37.1h-127v-40Z"/>
  <path class="st2" d="M89.2,65.8c2.2,69.3,73.3,124.9,160.8,124.9s158.6-55.7,160.7-125c.1-1.8-.9-3.2-2.4-3.2H92.2c-2.4-.1-3,1.6-3,3.3Z"/>
  <path class="st3" d="M320.8,25.2h-141.6c-4.1,0-7.4,3.3-7.4,7.4v138.1c0,3.2.8,4.1,1.6,5.5,6.2,9.8,37.9,50.1,55.2,66.2,2.7,2.5,14.7,15.8,21.4,15.8s18.7-13.3,21.4-15.8c17.3-16.1,49-56.3,55.2-66.2.9-1.4,1.6-2.3,1.6-5.5V32.6c0-4.1-3.3-7.4-7.4-7.4h0Z"/>
  <path class="st0" d="M320.8,25.2h-141.6c-4.1,0-7.4,3.3-7.4,7.4v138.1c0,3.2.8,4.1,1.6,5.5,3.7,5.8,16.3,22.4,29.7,38.3v-114.6h31.3v148.2c4.8,4.6,11.4,10.1,15.6,10.1s10.8-5.5,15.6-10.1V99.9h31.4v114.6c13.3-15.9,26-32.4,29.7-38.3.9-1.4,1.6-2.3,1.6-5.5V32.6c-.1-4.1-3.4-7.4-7.5-7.4h0ZM209.6,72.4l-8.6-4.7-8.6,4.7,1.8-9.6-7.1-6.7,9.7-1.2,4.2-8.9,4.2,8.9,9.7,1.2-7.1,6.7,1.8,9.6ZM260.3,66.8l2.8,14.7-13.1-7.2-13.1,7.2,2.8-14.7-10.9-10.3,14.8-1.9,6.4-13.5,6.4,13.5,14.9,1.9-11,10.3ZM307.6,72.4l-8.6-4.7-8.6,4.7,1.8-9.6-7.1-6.7,9.7-1.2,4.2-8.9,4.2,8.9,9.7,1.2-7.1,6.7,1.8,9.6Z"/>
</svg>