<?xml version="1.0" encoding="UTF-8"?>
<svg id="Layer_1" xmlns="http://www.w3.org/2000/svg" xmlns:xlink="http://www.w3.org/1999/xlink" version="1.1" viewBox="0 0 640 102">
  <!-- Generator: Adobe Illustrator 29.3.1, SVG Export Plug-In . SVG Version: 2.1.0 Build 151)  -->
  <defs>
    <style>
      .st0 {
        fill: #103c68;
      }

      .st1 {
        isolation: isolate;
      }

      .st2 {
        fill: #e0cb26;
      }

      .st3 {
        fill: #a39634;
      }

      .st4 {
        fill: #fff;
      }

      .st5 {
        display: none;
      }
    </style>
  </defs>
  <g id="Layer_11" data-name="Layer_1" class="st5">
    <image class="st1" width="550" height="86" transform="translate(1 8)" xlink:href="E534A896DB9F2983.png"/>
  </g>
  <g id="Layer_2_copy">
    <g>
      <path class="st2" d="M63.4,59.7v-7.8h-31.6c4.5,7.6,14.1,7.8,14,7.8h17.6Z"/>
      <path class="st2" d="M63.4,38.9H17.6c2.6,6.1,9.7,9.7,12.9,9.7h32.9v-9.7h0Z"/>
      <path class="st2" d="M63.4,21.4H1.8c-.5,0-.9.5-.8.9h0c1.5,7.3,10.6,14,14.9,14h47.5v-14.9Z"/>
      <path class="st2" d="M121.2,59.7v-7.8h31.6c-4.5,7.6-14.1,7.8-14,7.8h-17.6Z"/>
      <path class="st2" d="M121.2,38.9h45.8c-2.6,6.1-9.7,9.7-12.9,9.7h-32.9s0-9.7,0-9.7Z"/>
      <path class="st2" d="M121.2,21.4h61.6c.5,0,.9.5.8.9h0c-1.5,7.3-10.6,14-14.9,14h-47.5v-14.9h0Z"/>
      <path class="st3" d="M34.1,22.6c.8,25.2,26.6,45.4,58.4,45.4s57.7-20.2,58.4-45.5c.1-.5-.2-1-.8-1.1H35.1c-.8,0-1.1.6-1,1.2Z"/>
      <path class="st4" d="M118.5,7.8h-52.3c-1.5,0-2.8,1.2-2.8,2.8h0v51c0,.7.2,1.5.6,2,2.3,3.6,14,18.4,20.4,24.4,1,.9,5.4,5.8,7.9,5.8s6.9-4.9,7.9-5.8c6.4-5.9,18.1-20.8,20.4-24.4.4-.6.7-1.3.6-2V10.6c0-1.6-1.2-2.8-2.7-2.8h0Z"/>
      <path class="st0" d="M118.4,7.8h-52.2c-1.5,0-2.8,1.2-2.8,2.7h0v50.4c0,.7.2,1.4.6,2,1.4,2.1,6.1,8.2,11.1,14v-41.9h11.7v54.7c1.8,1.7,4.2,3.7,5.8,3.7s4-2,5.8-3.7v-54.7h11v41.9c5-5.8,9.7-11.8,11.1-14,.4-.6.7-1.3.6-2V10.5c0-1.5-1.1-2.7-2.7-2.7h0ZM77.5,25.1l-3.2-1.7-3.2,1.7.7-3.5-2.6-2.5,3.6-.5,1.5-3.2,1.5,3.2,3.6.5-2.6,2.5.7,3.5ZM96.2,23l1,5.4-4.8-2.6-4.8,2.6,1-5.4-4-3.8,5.5-.7,2.4-5,2.4,5,5.5.7-4.2,3.8ZM113.7,25.1l-3.2-1.7-3.2,1.7.7-3.5-2.6-2.5,3.6-.5,1.5-3.2,1.5,3.2,3.6.5-2.6,2.5.7,3.5Z"/>
    </g>
  </g>
  <g id="Layer_3" class="st5">
    <g>
      <path class="st2" d="M62.7,60v-7.7h-31.3c4.5,7.5,13.9,7.7,13.8,7.7h17.5Z"/>
      <path class="st2" d="M62.7,39.6H17.4c2.6,6,9.6,9.6,12.8,9.6h32.5v-9.6Z"/>
      <path class="st2" d="M62.7,22.1H2.6c-.5,0-.8.4-.8.9h0c1.4,7.1,10.3,13.6,14.5,13.6h46.4v-14.5h0Z"/>
      <path class="st2" d="M119.5,60v-7.7h31.2c-4.5,7.5-13.9,7.7-13.8,7.7h-17.4Z"/>
      <path class="st2" d="M119.5,39.6h45.3c-2.6,6-9.6,9.6-12.8,9.6h-32.5v-9.6h0Z"/>
      <path class="st2" d="M119.5,22.1h60.1c.5,0,.8.4.8.9h0c-1.5,7.1-10.3,13.6-14.5,13.6h-46.4s0-14.5,0-14.5Z"/>
      <path class="st3" d="M32.5,23.3c.8,25.3,26.8,45.5,58.6,45.5s57.8-20.3,58.6-45.6c.1-.5-.2-1-.8-1.2H33.5c-.8,0-1.1.7-1,1.3Z"/>
      <path class="st4" d="M116.9,8.5h-51.6c-1.5,0-2.7,1.2-2.7,2.7h0v50.4c0,.7.2,1.4.6,2,2.3,3.6,13.8,18.3,20.1,24.1,1,.9,5.4,5.8,7.8,5.8s6.8-4.8,7.8-5.8c6.3-5.9,17.9-20.5,20.1-24.1.4-.6.7-1.3.6-2V11.2c0-1.5-1.2-2.7-2.7-2.7h0Z"/>
      <path class="st0" d="M116.9,8.5h-51.6c-1.5,0-2.7,1.2-2.7,2.7h0v50.4c0,.7.2,1.4.6,2,1.3,2.1,6,8.2,10.8,13.9v-41.8h11.4v54c1.8,1.7,4.1,3.7,5.7,3.7s3.9-2,5.7-3.7v-54h11.4v41.8c4.8-5.8,9.5-11.8,10.8-14,.4-.6.7-1.3.6-2V11.2c0-1.5-1.2-2.7-2.7-2.7h0ZM76.3,25.7l-3.1-1.7-3.1,1.7.6-3.5-2.6-2.5,3.6-.5,1.5-3.2,1.5,3.2,3.5.5-2.6,2.5.7,3.5ZM94.8,23.7l1,5.4-4.8-2.6-4.7,2.5,1-5.4-3.9-3.7,5.4-.7,2.3-4.9,2.3,4.9,5.4.7-4,3.8ZM112.1,25.7l-3.1-1.7-3.1,1.7.6-3.5-2.6-2.5,3.6-.5,1.5-3.2,1.5,3.2,3.6.5-2.6,2.5.6,3.5Z"/>
    </g>
    <g>
      <path class="st0" d="M224.5,38.4c0,1.2-.2,2.3-.6,3.4-.4,1-.9,1.9-1.6,2.7-.8.8-1.7,1.4-2.8,1.8-2.5.9-5.2.9-7.6,0-1-.4-2-1-2.8-1.8-.7-.8-1.3-1.7-1.6-2.7-.4-1.1-.6-2.3-.6-3.4v-12.8h4.6v12.6c0,.6.1,1.2.3,1.8.2.5.5,1,.9,1.4s.8.7,1.3.9,1.1.3,1.7.3,1.1,0,1.7-.3c.5-.2.9-.5,1.3-.9.4-.4.7-.9.9-1.4.2-.6.3-1.2.3-1.8v-12.6h4.6v12.8h0Z"/>
      <path class="st0" d="M227.5,43.9c0-.4.1-.7.2-1.1.1-.3.3-.6.6-.9s.5-.4.9-.6c.7-.3,1.4-.3,2.1,0,.3,0,.6.3.9.6s.4.5.6.9c.1.3.2.7.2,1.1,0,.7-.3,1.4-.8,1.9-.2.2-.6.4-.9.6-.7.3-1.4.3-2.1,0-.7-.3-1.2-.8-1.4-1.4-.2-.3-.3-.7-.3-1.1Z"/>
      <path class="st0" d="M252.1,30.7c-.4-.5-.9-.9-1.5-1-.6-.2-1.2-.3-1.8-.3s-.7,0-1,.1c-.4.1-.7.2-1,.4-.3.2-.6.4-.8.7-.2.3-.3.6-.3,1,0,.6.2,1.1.7,1.4.5.4,1.1.7,1.8.9s1.5.5,2.3.7,1.6.6,2.3,1,1.3,1,1.8,1.7.7,1.7.7,2.9-.2,2.1-.7,3c-.4.8-1,1.6-1.8,2.2-.8.6-1.6,1-2.6,1.3s-2,.4-3.1.4-2.6-.2-3.8-.6c-1.2-.4-2.3-1.1-3.2-2l3.3-3.6c.5.6,1.1,1.1,1.8,1.5.7.3,1.5.5,2.2.5s.8,0,1.1,0c.4,0,.7-.2,1-.4s.6-.4.7-.7c.2-.3.3-.6.3-1,0-.6-.2-1.1-.7-1.5s-1.1-.7-1.8-1-1.5-.5-2.4-.8c-.8-.2-1.6-.6-2.4-1-.7-.4-1.3-1-1.8-1.7-.5-.8-.8-1.8-.7-2.8,0-1,.2-2,.7-3,.4-.8,1-1.5,1.8-2.1s1.6-1,2.6-1.3,2-.4,3-.4,2.3.2,3.4.5c1.1.3,2.1.9,3,1.7l-3.1,3.4Z"/>
      <path class="st0" d="M258.8,43.9c0-.4.1-.7.2-1.1.1-.3.3-.6.6-.9s.5-.4.9-.6c.7-.3,1.4-.3,2.1,0,.3,0,.6.3.9.6s.4.5.6.9c.1.3.2.7.2,1.1s-.1.7-.2,1.1c-.1.3-.3.6-.6.9s-.5.4-.9.6c-.7.3-1.4.3-2.1,0s-1.2-.8-1.4-1.4c-.2-.4-.3-.8-.3-1.2Z"/>
    </g>
    <g>
      <path class="st0" d="M206.9,63.6h6.9c1.6,0,3.2.2,4.8.6,1.4.3,2.8.9,3.9,1.8,1.1.8,2.1,2,2.7,3.3.7,1.5,1,3.2,1,4.9s-.3,3.1-1,4.5c-.6,1.3-1.5,2.4-2.6,3.2-1.1.9-2.4,1.6-3.7,2-1.4.4-2.9.7-4.4.7h-7.5v-21h0ZM211.5,80.2h2.4c1,0,2,0,3-.3.9-.2,1.7-.6,2.4-1.1s1.2-1.2,1.6-2c.4-.9.6-2,.6-3s-.2-1.8-.6-2.7c-.4-.7-.9-1.4-1.5-1.9-.7-.5-1.5-.9-2.3-1.1-.9-.2-1.8-.4-2.8-.4h-2.7v12.5Z"/>
      <path class="st0" d="M233.7,63.6h4.6v20.9h-4.6v-20.9Z"/>
      <path class="st0" d="M265.8,83c-1.3.7-2.8,1.2-4.2,1.5-1.5.3-3,.5-4.5.5s-3.1-.2-4.5-.8c-1.3-.5-2.5-1.2-3.6-2.2-1-1-1.8-2.2-2.4-3.5-.6-1.4-.9-3-.8-4.5,0-1.6.3-3.1.8-4.5.5-1.3,1.3-2.5,2.4-3.5,1-1,2.2-1.7,3.6-2.2,1.4-.5,3-.8,4.5-.8s3.1.2,4.6.6c1.4.4,2.6,1.1,3.7,2.1l-3.2,3.5c-.6-.6-1.3-1.1-2.1-1.5-.9-.4-1.9-.5-3-.5s-1.8.2-2.7.5c-.8.3-1.5.8-2.1,1.4s-1,1.3-1.3,2.1c-.6,1.7-.6,3.6,0,5.4.3.8.7,1.5,1.3,2.1s1.3,1.1,2.1,1.4c.9.3,1.8.5,2.7.5s1.8,0,2.6-.3c.6-.2,1.2-.4,1.7-.7v-3.4h-3.8v-4.2h8.2v11h0Z"/>
      <path class="st0" d="M274.2,63.6h4.6v20.9h-4.6v-20.9Z"/>
      <path class="st0" d="M291.4,67.7h-6v-4.1h16.5v4.1h-5.9v16.8h-4.6v-16.8Z"/>
      <path class="st0" d="M312.9,63.6h3.8l9.1,20.9h-5.2l-1.8-4.4h-8.1l-1.7,4.4h-5.1l9-20.9ZM314.6,69.7l-2.5,6.5h5.1l-2.6-6.5Z"/>
      <path class="st0" d="M332.4,63.6h4.6v16.6h8.5v4.2h-13.1v-20.8h0Z"/>
      <path class="st0" d="M376,68.7c-.4-.5-.9-.8-1.5-1.1-.6-.2-1.2-.3-1.8-.3s-.7,0-1,0c-.4,0-.7.2-1,.4-.3.2-.6.4-.8.7-.2.3-.3.6-.3,1,0,.6.2,1.1.7,1.4.5.4,1.1.7,1.8.9.7.2,1.5.5,2.3.7s1.6.6,2.3,1c.7.4,1.3,1,1.8,1.7.5.9.8,1.9.7,2.9,0,1.1-.2,2.1-.7,3-.4.8-1,1.6-1.8,2.2s-1.6,1-2.6,1.3-2,.4-3.1.4-2.6-.2-3.8-.6c-1.2-.4-2.3-1.1-3.2-2l3.3-3.6c.5.6,1.1,1.1,1.8,1.5.7.3,1.5.5,2.2.5s.8,0,1.1,0c.4,0,.7-.2,1-.4.3-.2.5-.4.7-.7.2-.3.3-.6.3-1,0-.6-.2-1.1-.7-1.5s-1.2-.7-1.8-.9c-.7-.3-1.5-.5-2.4-.8-.8-.2-1.6-.6-2.4-1-.7-.4-1.3-1-1.8-1.7-.5-.8-.8-1.8-.7-2.8,0-1,.2-2,.7-2.9.4-.8,1-1.6,1.8-2.1.8-.6,1.6-1,2.5-1.3,1-.3,2-.4,3-.4s2.3.2,3.4.5,2.1.9,3,1.7l-3,3.3Z"/>
      <path class="st0" d="M387.1,63.6h14.2v4.2h-9.6v3.9h9v4.3h-9v4.2h10.1v4.2h-14.7v-20.8Z"/>
      <path class="st0" d="M410,63.6h8.1c1,0,2,0,3,.3.9.2,1.7.5,2.5,1,.7.5,1.3,1.2,1.7,1.9.5.9.7,2,.6,3.1,0,1.3-.4,2.7-1.1,3.8-.8,1.1-2,1.8-3.4,2l5.3,8.8h-5.5l-4.4-8.3h-2.3v8.3h-4.5v-20.9ZM414.6,72.2h2.7c.4,0,.9,0,1.3,0,.4,0,.9,0,1.2-.3.4,0,.7-.4.9-.7.3-.4.4-.8.4-1.3s-.1-.9-.3-1.3c-.2-.3-.5-.6-.8-.7-.4-.2-.8-.3-1.1-.3-.4,0-.8,0-1.3,0h-3v4.8h0Z"/>
      <path class="st0" d="M431.4,63.6h5.2l5.2,13.7h.1l5.2-13.7h4.9l-8.6,20.9h-3.7l-8.3-20.9Z"/>
      <path class="st0" d="M458.6,63.6h4.6v20.9h-4.6v-20.9Z"/>
      <path class="st0" d="M485.4,69c-.4-.6-1-1-1.6-1.3-.7-.3-1.5-.5-2.3-.4-1.6,0-3.2.7-4.3,1.9-.6.6-1,1.3-1.3,2.1-.6,1.7-.6,3.6,0,5.4.3.8.7,1.5,1.2,2.1s1.2,1.1,1.9,1.4c.7.3,1.5.5,2.3.5s1.7-.2,2.5-.6c.7-.4,1.3-1,1.8-1.7l3.8,2.9c-.9,1.2-2,2.2-3.4,2.7-1.3.6-2.7.9-4.2.9s-3.1-.2-4.5-.8c-1.3-.5-2.5-1.2-3.6-2.2-1-1-1.8-2.2-2.4-3.5-.6-1.4-.9-3-.8-4.5,0-1.6.3-3.1.8-4.5.5-1.3,1.3-2.5,2.4-3.5,1-1,2.2-1.7,3.6-2.2,1.4-.5,3-.8,4.5-.8s1.2,0,1.8.2c.6,0,1.3.3,1.9.5s1.2.6,1.8.9c.6.4,1.1.9,1.5,1.4l-3.4,3.1Z"/>
      <path class="st0" d="M496.6,63.6h14.2v4.2h-9.6v3.9h9v4.3h-9v4.2h10.1v4.2h-14.7v-20.8Z"/>
    </g>
  </g>
</svg>