<?xml version="1.0" encoding="UTF-8"?>
<svg id="Layer_1" xmlns="http://www.w3.org/2000/svg" xmlns:xlink="http://www.w3.org/1999/xlink" version="1.1" viewBox="0 0 157 95">
  <!-- Generator: Adobe Illustrator 29.3.1, SVG Export Plug-In . SVG Version: 2.1.0 Build 151)  -->
  <defs>
    <style>
      .st0 {
        fill: #103c68;
      }

      .st1 {
        fill: #e0cb26;
      }

      .st2 {
        fill: #a39634;
      }

      .st3 {
        fill: #fff;
      }
    </style>
  </defs>
  <path class="st1" d="M54.2,44v-6.6h-26.8c3.9,6.5,11.9,6.6,11.9,6.6-.9,0,5.4,0,14.9,0Z"/>
  <path class="st1" d="M54.2,26.6H15.4c2.2,5.1,8.2,8.2,10.9,8.2h27.8v-8.2h.1Z"/>
  <path class="st1" d="M54.2,11.6H2.7c-.4,0-.7.4-.7.8h0c1.2,6.1,8.9,11.7,12.4,11.7h39.7v-12.5h.1Z"/>
  <path class="st1" d="M102.8,44v-6.6h26.8c-3.9,6.5-11.9,6.6-11.8,6.6.8,0-5.5,0-15,0Z"/>
  <path class="st1" d="M102.8,26.6h38.8c-2.2,5.1-8.2,8.2-10.9,8.2h-27.8v-8.2h-.1Z"/>
  <path class="st1" d="M102.8,11.6h51.5c.4,0,.7.4.7.8h0c-1.2,6.1-8.9,11.7-12.4,11.7h-39.7v-12.5h-.1Z"/>
  <path class="st2" d="M28.3,12.6c.7,21.6,22.9,39,50.2,39s49.5-17.4,50.2-39c0-.6-.3-1-.8-1H29.2c-.7,0-.9.5-.9,1Z"/>
  <path class="st3" d="M100.6-.1h-44.2c-1.3,0-2.3,1-2.3,2.3v43.1c0,1,.2,1.3.5,1.7,2,3.1,11.8,15.6,17.2,20.7.8.8,4.6,4.9,6.7,4.9s5.8-4.1,6.7-4.9c5.4-5,15.3-17.6,17.2-20.7.3-.4.5-.7.5-1.7V2.3c0-1.3-1-2.4-2.3-2.4h0Z"/>
  <path class="st0" d="M100.6-.1h-44.2c-1.3,0-2.3,1-2.3,2.3v43.1c0,1,.2,1.3.5,1.7,1.2,1.8,5.1,7,9.3,12V23.3h9.8v46.3c1.5,1.4,3.5,3.2,4.9,3.2s3.4-1.7,4.9-3.2V23.3h9.8v35.7c4.2-5,8.1-10.1,9.3-12,.3-.4.5-.7.5-1.7V2.3c-.2-1.3-1.2-2.4-2.5-2.4h0ZM65.9,14.7l-2.7-1.5-2.7,1.5.6-3-2.2-2.1,3-.4,1.3-2.8,1.3,2.8,3,.4-2.2,2.1.6,3ZM81.7,12.9l.9,4.6-4.1-2.2-4.1,2.2.9-4.6-3.4-3.2,4.6-.6,2-4.2,2,4.2,4.6.6-3.4,3.2ZM96.5,14.7l-2.7-1.5-2.7,1.5.6-3-2.2-2.1,3-.4,1.3-2.8,1.3,2.8,3,.4-2.2,2.1.6,3Z"/>
</svg>